# xmcd
# 
# Track frame offsets:
#     150
#     20579
#     35709
#     51162
#     66714
#     80540
#     98770
#     114900
#     128477
#     140562
#     155028
#     174346
# 
# Disc length: 2508
# 
# Revision: 14
# Processed by: cddbd v1.5.2PL0 Copyright (c) Steve Scherf et al.
# Submitted via: fre:ac v1.0.31
# 
DISCID=a409ca0c
DTITLE=Arctic Monkeys - AM
DYEAR=2013
DGENRE=Rock/Pop
TTITLE0=Do I Wanna Know?
TTITLE1=R U Mine?
TTITLE2=One for the Road
TTITLE3=Arabella
TTITLE4=I Want It All
TTITLE5=No. 1 Party Anthem
TTITLE6=Mad Sounds
TTITLE7=Fireside
TTITLE8=Why'd You Only Call Me When You're High?
TTITLE9=Snap Out of It
TTITLE10=Knee Socks
TTITLE11=I Wanna Be Yours
EXTD=YEAR: 2013
EXTT0=
EXTT1=
EXTT2=
EXTT3=
EXTT4=
EXTT5=
EXTT6=
EXTT7=
EXTT8=
EXTT9=
EXTT10=
EXTT11=
PLAYORDER=
